<?xml version="1.0" standalone="no"?>
<!DOCTYPE svg PUBLIC "-//W3C//DTD SVG 20010904//EN"
 "http://www.w3.org/TR/2001/REC-SVG-20010904/DTD/svg10.dtd">
<svg version="1.0" xmlns="http://www.w3.org/2000/svg"
 width="512.000000pt" height="512.000000pt" viewBox="0 0 512.000000 512.000000"
 preserveAspectRatio="xMidYMid meet">
<metadata>
Created by potrace 1.14, written by Peter Selinger 2001-2017
</metadata>
<g transform="translate(0.000000,512.000000) scale(0.100000,-0.100000)"
fill="#000000" stroke="none">
<path d="M3265 5060 c-38 -10 -97 -30 -130 -45 -51 -23 -533 -298 -898 -512
-60 -34 -111 -63 -114 -63 -3 0 -17 -8 -31 -19 -15 -10 -47 -30 -72 -43 -39
-22 -247 -143 -290 -168 -8 -5 -81 -47 -162 -94 -80 -47 -180 -112 -220 -145
-271 -218 -493 -572 -589 -941 -37 -145 -38 -178 -36 -1225 3 -942 4 -1024 20
-1078 57 -188 118 -251 387 -401 131 -73 213 -126 250 -161 95 -89 183 -124
313 -123 47 1 111 9 151 20 110 30 141 46 556 287 69 40 199 116 290 168 91
52 172 99 180 104 18 11 485 281 550 317 119 67 260 154 310 192 75 56 200
179 265 259 53 67 175 244 175 255 0 4 10 23 23 44 58 93 140 310 177 466 23
100 25 192 25 1181 0 792 -3 1021 -13 1060 -7 28 -13 53 -13 57 1 19 -52 125
-85 171 -61 85 -137 138 -233 163 -30 7 -119 51 -199 96 -79 46 -156 90 -171
98 -14 8 -42 25 -62 37 -93 58 -229 74 -354 43z"/>
</g>
</svg>
